<?xml version="1.0" encoding="iso-8859-1"?>
<!-- Generator: Adobe Illustrator 18.1.1, SVG Export Plug-In . SVG Version: 6.00 Build 0)  -->
<svg version="1.1" id="Capa_1" xmlns="http://www.w3.org/2000/svg" xmlns:xlink="http://www.w3.org/1999/xlink" x="0px" y="0px"
	 viewBox="0 0 50.767 50.767" style="enable-background:new 0 0 50.767 50.767;" xml:space="preserve">
<g>
	<g>
		<g>
			<path style="fill:#010002;" d="M38.214,50.767h-25.66c-3.678,0-6.67-2.991-6.67-6.669V6.67c0-3.678,2.992-6.67,6.67-6.67h25.66
				c3.678,0,6.67,2.992,6.67,6.67v37.429C44.883,47.776,41.892,50.767,38.214,50.767z M12.553,2c-2.575,0-4.67,2.096-4.67,4.67
				v37.429c0,2.575,2.095,4.669,4.67,4.669h25.66c2.575,0,4.67-2.094,4.67-4.669V6.67c0-2.574-2.095-4.67-4.67-4.67H12.553z"/>
		</g>
		<g>
			<path style="fill:#010002;" d="M37.996,14.35H12.771c-0.553,0-1-0.448-1-1V6.768c0-0.552,0.447-1,1-1h25.227c0.553,0,1,0.448,1,1
				v6.582C38.996,13.901,38.549,14.35,37.996,14.35z M13.771,12.35h23.227V7.768H13.771V12.35z"/>
		</g>
		<g>
			<path style="fill:#010002;" d="M19.038,25.847h-6.268c-0.553,0-1-0.448-1-1v-6.269c0-0.552,0.447-1,1-1h6.268
				c0.553,0,1,0.448,1,1v6.269C20.038,25.398,19.591,25.847,19.038,25.847z M13.771,23.847h4.268v-4.269h-4.268V23.847z"/>
		</g>
		<g>
			<path style="fill:#010002;" d="M28.517,25.847h-6.268c-0.552,0-1-0.448-1-1v-6.269c0-0.552,0.448-1,1-1h6.268
				c0.552,0,1,0.448,1,1v6.269C29.517,25.398,29.07,25.847,28.517,25.847z M23.25,23.847h4.268v-4.269H23.25V23.847z"/>
		</g>
		<g>
			<path style="fill:#010002;" d="M37.996,25.847h-6.268c-0.553,0-1-0.448-1-1v-6.269c0-0.552,0.447-1,1-1h6.268
				c0.553,0,1,0.448,1,1v6.269C38.996,25.398,38.549,25.847,37.996,25.847z M32.729,23.847h4.268v-4.269h-4.268V23.847z"/>
		</g>
		<g>
			<path style="fill:#010002;" d="M19.038,35.187h-6.268c-0.553,0-1-0.447-1-1v-6.268c0-0.552,0.447-1,1-1h6.268
				c0.553,0,1,0.448,1,1v6.268C20.038,34.74,19.591,35.187,19.038,35.187z M13.771,33.187h4.268v-4.268h-4.268V33.187z"/>
		</g>
		<g>
			<path style="fill:#010002;" d="M28.517,35.187h-6.268c-0.552,0-1-0.447-1-1v-6.268c0-0.552,0.448-1,1-1h6.268
				c0.552,0,1,0.448,1,1v6.268C29.517,34.74,29.07,35.187,28.517,35.187z M23.25,33.187h4.268v-4.268H23.25V33.187z"/>
		</g>
		<g>
			<path style="fill:#010002;" d="M37.996,35.187h-6.268c-0.553,0-1-0.447-1-1v-6.268c0-0.552,0.447-1,1-1h6.268
				c0.553,0,1,0.448,1,1v6.268C38.996,34.74,38.549,35.187,37.996,35.187z M32.729,33.187h4.268v-4.268h-4.268V33.187z"/>
		</g>
		<g>
			<path style="fill:#010002;" d="M19.038,44.395h-6.268c-0.553,0-1-0.448-1-1v-6.269c0-0.552,0.447-1,1-1h6.268
				c0.553,0,1,0.448,1,1v6.269C20.038,43.947,19.591,44.395,19.038,44.395z M13.771,42.395h4.268v-4.269h-4.268V42.395z"/>
		</g>
		<g>
			<path style="fill:#010002;" d="M28.517,44.395h-6.268c-0.552,0-1-0.448-1-1v-6.269c0-0.552,0.448-1,1-1h6.268
				c0.552,0,1,0.448,1,1v6.269C29.517,43.947,29.07,44.395,28.517,44.395z M23.25,42.395h4.268v-4.269H23.25V42.395z"/>
		</g>
		<g>
			<path style="fill:#010002;" d="M37.996,44.395h-6.268c-0.553,0-1-0.448-1-1v-6.269c0-0.552,0.447-1,1-1h6.268
				c0.553,0,1,0.448,1,1v6.269C38.996,43.947,38.549,44.395,37.996,44.395z M32.729,42.395h4.268v-4.269h-4.268V42.395z"/>
		</g>
	</g>
</g>
<g>
</g>
<g>
</g>
<g>
</g>
<g>
</g>
<g>
</g>
<g>
</g>
<g>
</g>
<g>
</g>
<g>
</g>
<g>
</g>
<g>
</g>
<g>
</g>
<g>
</g>
<g>
</g>
<g>
</g>
</svg>
